<svg xmlns="http://www.w3.org/2000/svg" viewBox="0 0 64 64" width="100" height="100" aria-hidden="true" role="img">
	<defs>
		<linearGradient id="g" x1="0" x2="1" y1="0" y2="1">
			<stop offset="0%" stop-color="#50E3C2"/>
			<stop offset="100%" stop-color="#3CC2F0"/>
		</linearGradient>
	</defs>
	<rect width="64" height="64" rx="12" fill="none"/>
	<path d="M32 6c7.732 0 14 3.582 14 8v7.5c0 6.627-5.373 12-12 12s-12-5.373-12-12V14c0-4.418 6.268-8 14-8z" fill="url(#g)"/>
	<path d="M20 28c0 6.627 5.373 12 12 12s12-5.373 12-12v-8.5c0-2.485-3.134-4.634-7.5-6.027C34.05 17.06 33.07 17 32 17c-1.07 0-2.05.06-3.5.473C23.134 15.866 20 18.015 20 20.5V28z" fill="#fff" opacity="0.06"/>
	<path d="M26.5 31.5l3.5 3.5 7.5-7.5" fill="none" stroke="#fff" stroke-width="3" stroke-linecap="round" stroke-linejoin="round"/>
	<title>Garantía</title>
</svg>